<svg width="14" height="18" viewBox="0 0 14 18" fill="none" xmlns="http://www.w3.org/2000/svg">
<path d="M13 4.79999H8.19999V3.30001H9.7V3.6C9.7 3.78 9.81999 3.89999 9.99999 3.89999C10.18 3.89999 10.3 3.78 10.3 3.6V3.30001H11.2C11.38 3.30001 11.5 3.18002 11.5 3.00002V1.8C11.5 1.62 11.38 1.50001 11.2 1.50001H8.19999V1.01999C8.19999 0.45 7.74998 0 7.18 0H6.82C6.25001 0 5.80001 0.45 5.80001 1.01999V1.49998H2.80002C2.65001 1.49998 2.50003 1.64999 2.50003 1.79996V2.99995C2.50003 3.17995 2.62002 3.29994 2.80002 3.29994H3.70002V3.59993C3.70002 3.77993 3.82001 3.89992 4.00001 3.89992C4.18001 3.89992 4.3 3.77993 4.3 3.59993V3.29994H5.80001V4.79995H0.999985C0.819985 4.79995 0.699997 4.91994 0.699997 5.09994V6.3C0.699997 6.48 0.819985 6.59999 0.999985 6.59999H1.6V6.89998C1.6 7.07998 1.71999 7.19996 1.89999 7.19996C2.07999 7.19996 2.19997 7.07998 2.19997 6.89998V6.59999H3.69999V6.89998C3.69999 7.07998 3.81997 7.19996 3.99997 7.19996C4.17997 7.19996 4.29996 7.07998 4.29996 6.89998V6.59999H5.79997V15.3H6.69997C6.87997 15.3 6.99996 15.42 6.99996 15.6C6.99996 15.78 6.87997 15.9 6.69997 15.9H5.79997V16.2H6.69997C6.87997 16.2 6.99996 16.32 6.99996 16.5C6.99996 16.68 6.87997 16.7999 6.69997 16.7999H5.79997V17.4H5.2C5.02 17.4 4.90001 17.5199 4.90001 17.6999C4.90001 17.8799 5.02 18 5.2 18H6.1H7.9H8.8C8.98 18 9.09999 17.88 9.09999 17.7C9.09999 17.52 8.98 17.4 8.8 17.4H8.19999V12V6.60002H9.7V6.90001C9.7 7.08001 9.81999 7.2 9.99999 7.2C10.18 7.2 10.3 7.08001 10.3 6.90001V6.60002H11.8V6.90001C11.8 7.08001 11.92 7.2 12.1 7.2C12.28 7.2 12.4 7.08001 12.4 6.90001V6.60002H13C13.18 6.60002 13.3 6.48004 13.3 6.30004V5.10005C13.3 4.95 13.18 4.79999 13 4.79999ZM3.10001 2.7V2.09999H6.1H7.9H10.9V2.7H7.9H6.1H3.10001ZM12.7 6.00001H7.9H6.1H1.30001V5.4H6.1H7.9H12.7V6.00001Z" fill="white"/>
</svg>
